<svg id="ab3" xmlns="http://www.w3.org/2000/svg" viewBox="0 0 128 128">
	<defs>
		<style>.background{fill:#ff1f55;}</style>
	</defs>
	<title>Instagram</title>
	<rect class="background" width="128" height="128"/>
	<path d="M64,32c-8.69,0-9.78,0-13.19.19A23.59,23.59,0,0,0,43,33.68,16.34,16.34,0,0,0,33.68,43a23.59,23.59,0,0,0-1.49,7.77C32,54.22,32,55.31,32,64s0,9.78.19,13.19A23.59,23.59,0,0,0,33.68,85,16.34,16.34,0,0,0,43,94.32a23.59,23.59,0,0,0,7.77,1.49C54.22,96,55.31,96,64,96s9.78,0,13.19-.19A23.59,23.59,0,0,0,85,94.32,16.34,16.34,0,0,0,94.32,85a23.59,23.59,0,0,0,1.49-7.77C96,73.78,96,72.69,96,64s0-9.78-.19-13.19A23.59,23.59,0,0,0,94.32,43,16.34,16.34,0,0,0,85,33.68a23.59,23.59,0,0,0-7.77-1.49C73.78,32,72.69,32,64,32Zm0,5.77c8.54,0,9.56,0,12.93.18a17.81,17.81,0,0,1,5.94,1.1A10.66,10.66,0,0,1,89,45.13a17.81,17.81,0,0,1,1.1,5.94c.15,3.37.18,4.39.18,12.93s0,9.56-.18,12.93A17.81,17.81,0,0,1,89,82.87,10.66,10.66,0,0,1,82.87,89a17.81,17.81,0,0,1-5.94,1.1c-3.37.15-4.39.18-12.93.18s-9.56,0-12.93-.18A17.81,17.81,0,0,1,45.13,89a10.66,10.66,0,0,1-6.08-6.08A17.81,17.81,0,0,1,38,76.93c-.15-3.37-.18-4.39-.18-12.93s0-9.56.18-12.93a17.81,17.81,0,0,1,1.1-5.94,10.66,10.66,0,0,1,6.08-6.08A17.81,17.81,0,0,1,51.07,38c3.37-.15,4.39-.18,12.93-.18"/>
	<path d="M64,74.67A10.67,10.67,0,1,1,74.67,64,10.67,10.67,0,0,1,64,74.67Zm0-27.1A16.43,16.43,0,1,0,80.43,64,16.42,16.42,0,0,0,64,47.57Z"/>
	<path d="M84.92,46.92a3.84,3.84,0,1,1-3.84-3.84,3.84,3.84,0,0,1,3.84,3.84Z"/>
</svg>