<svg xmlns="http://www.w3.org/2000/svg" viewBox="0 0 128 128"><defs><style>.cls-1{fill:#1da1f2;}.cls-2{fill:#fff;}</style></defs><title>Artboard 2</title><g id="ab2"><g id="Dark_Blue" data-name="Dark Blue"><rect class="cls-1" width="128" height="128"/></g><g id="Logo_FIXED" data-name="Logo — FIXED"><path class="cls-2" d="M49.15,96.51c30.18,0,46.69-25,46.69-46.69,0-.7,0-1.4,0-2.11A33.32,33.32,0,0,0,104,39.2a33.07,33.07,0,0,1-9.44,2.59,16.51,16.51,0,0,0,7.23-9.09,32.5,32.5,0,0,1-10.43,4A16.41,16.41,0,0,0,63,47.9a18.65,18.65,0,0,0,.41,3.75A46.57,46.57,0,0,1,29.57,34.5a16.47,16.47,0,0,0,5.09,21.92,16.75,16.75,0,0,1-7.43-2.05v.22a16.46,16.46,0,0,0,13.15,16.1,16.09,16.09,0,0,1-4.32.57A16.31,16.31,0,0,1,33,71,16.42,16.42,0,0,0,48.32,82.37a32.93,32.93,0,0,1-20.38,7A31.58,31.58,0,0,1,24,89.18a46.65,46.65,0,0,0,25.12,7.33"/></g></g></svg>