<svg xmlns="http://www.w3.org/2000/svg" viewBox="0 0 256 128"><defs><style>.cls-1{fill:#313131;}.cls-2{fill:red;}.cls-3{fill:#fff;}</style></defs><title>Artboard 1</title><g id="ab1"><rect class="cls-1" width="256" height="128"/><path class="cls-2" d="M94.36,50.25a7.17,7.17,0,0,0-5-5.06C84.85,44,67,44,67,44s-17.87,0-22.32,1.19a7.15,7.15,0,0,0-5,5.06C38.41,54.7,38.41,64,38.41,64s0,9.3,1.2,13.75a7.15,7.15,0,0,0,5,5.06C49.11,84,67,84,67,84s17.87,0,22.33-1.19a7.17,7.17,0,0,0,5-5.06C95.55,73.3,95.55,64,95.55,64S95.55,54.7,94.36,50.25Z"/><polygon class="cls-3" points="61.27 72.57 76.11 64 61.27 55.43 61.27 72.57"/><path class="cls-3" d="M121.36,80.39a6.21,6.21,0,0,1-2.42-3.56,23.49,23.49,0,0,1-.71-6.41V66.78a21,21,0,0,1,.82-6.5,6.48,6.48,0,0,1,2.55-3.57,8.28,8.28,0,0,1,4.56-1.12,7.79,7.79,0,0,1,4.45,1.14,6.53,6.53,0,0,1,2.45,3.57,21.88,21.88,0,0,1,.78,6.48v3.64a22,22,0,0,1-.76,6.43,6.28,6.28,0,0,1-2.45,3.56,10.07,10.07,0,0,1-9.27,0Zm6.33-3.92a12.36,12.36,0,0,0,.47-4v-7.8a12.19,12.19,0,0,0-.47-3.95A1.68,1.68,0,0,0,126,59.47a1.65,1.65,0,0,0-1.61,1.24,12.19,12.19,0,0,0-.47,3.95v7.8a12.78,12.78,0,0,0,.45,4A1.64,1.64,0,0,0,126,77.69,1.68,1.68,0,0,0,127.69,76.47Z"/><path class="cls-3" d="M208.15,70.48v1.27a35,35,0,0,0,.14,3.61,3.48,3.48,0,0,0,.59,1.76,1.69,1.69,0,0,0,1.39.55,1.75,1.75,0,0,0,1.74-1,8.63,8.63,0,0,0,.51-3.27l4.86.29a7.08,7.08,0,0,1,0,.9,6.65,6.65,0,0,1-1.9,5.19,7.73,7.73,0,0,1-5.37,1.71q-4.17,0-5.84-2.61c-1.12-1.75-1.68-4.44-1.68-8.09V66.43q0-5.64,1.74-8.23t5.94-2.6a7.86,7.86,0,0,1,4.46,1.07A5.67,5.67,0,0,1,217,60a23.5,23.5,0,0,1,.64,6.21v4.29Zm.71-10.54a3.53,3.53,0,0,0-.57,1.73,35.73,35.73,0,0,0-.14,3.66v1.8h4.13v-1.8a29.89,29.89,0,0,0-.17-3.66,3.53,3.53,0,0,0-.59-1.76,1.65,1.65,0,0,0-1.33-.51A1.6,1.6,0,0,0,208.86,59.94Z"/><path class="cls-3" d="M107.62,70l-6.41-23.17h5.6l2.24,10.5q.87,3.88,1.27,6.62h.16c.19-1.31.62-3.5,1.27-6.58l2.33-10.54h5.6L113.18,70V81.13h-5.56Z"/><path class="cls-3" d="M152.05,56.08v25h-4.42l-.49-3.06H147a5.76,5.76,0,0,1-5.39,3.47A4.23,4.23,0,0,1,138,79.9a8.77,8.77,0,0,1-1.19-5.11V56.08h5.64V74.46a5.66,5.66,0,0,0,.37,2.39,1.27,1.27,0,0,0,1.23.72,2.5,2.5,0,0,0,1.41-.45,2.8,2.8,0,0,0,1-1.14V56.08Z"/><path class="cls-3" d="M181,56.08v25h-4.41l-.49-3.06H176a5.77,5.77,0,0,1-5.4,3.47,4.24,4.24,0,0,1-3.68-1.63,8.78,8.78,0,0,1-1.18-5.11V56.08h5.64V74.46a5.5,5.5,0,0,0,.37,2.39,1.26,1.26,0,0,0,1.22.72,2.5,2.5,0,0,0,1.41-.45,2.73,2.73,0,0,0,1-1.14V56.08Z"/><path class="cls-3" d="M167.37,51.38h-5.6V81.12h-5.51V51.38h-5.6V46.84h16.71Z"/><path class="cls-3" d="M199.64,60.08A6.45,6.45,0,0,0,198,56.65a4.43,4.43,0,0,0-3.14-1.07,5.28,5.28,0,0,0-2.91.88,6,6,0,0,0-2.08,2.31h0V45.57h-5.44V81.12H189l.57-2.37h.13a4.74,4.74,0,0,0,2,2,5.81,5.81,0,0,0,2.9.73,4.45,4.45,0,0,0,4.21-2.63c.9-1.76,1.35-4.5,1.35-8.24v-4A32.91,32.91,0,0,0,199.64,60.08ZM194.47,70.3a31.58,31.58,0,0,1-.23,4.29,4.65,4.65,0,0,1-.75,2.2,1.75,1.75,0,0,1-1.43.66,2.58,2.58,0,0,1-1.29-.33,2.39,2.39,0,0,1-1-1V61.92a3.62,3.62,0,0,1,1-1.68,2.19,2.19,0,0,1,1.51-.65,1.53,1.53,0,0,1,1.33.68,5.12,5.12,0,0,1,.65,2.26,40.34,40.34,0,0,1,.19,4.54Z"/></g></svg>