<?xml version="1.0" encoding="utf-8"?>
<!-- Generator: Adobe Illustrator 22.1.0, SVG Export Plug-In . SVG Version: 6.00 Build 0)  -->
<svg version="1.1" id="Layer_1" xmlns="http://www.w3.org/2000/svg" xmlns:xlink="http://www.w3.org/1999/xlink" x="0px" y="0px"
	 viewBox="0 0 128 128" style="enable-background:new 0 0 128 128;" xml:space="preserve">
	<style type="text/css">
		.background{fill:#510000;}
		.st1{fill:#FF0000;}
		.st2{fill:#FFFFFF;}
	</style>
	<title>YouTube</title>
	<rect class="background" width="128" height="128"/>
	<path class="st1" d="M91.4,50.3c-0.7-2.5-2.6-4.4-5-5.1C81.9,44,64,44,64,44s-17.9,0-22.3,1.2c-2.4,0.7-4.4,2.6-5,5.1
		C35.4,54.7,35.4,64,35.4,64s0,9.3,1.2,13.8c0.6,2.5,2.6,4.4,5,5.1C46.1,84,64,84,64,84s17.9,0,22.3-1.2c2.4-0.7,4.3-2.6,5-5.1
		c1.2-4.4,1.2-13.8,1.2-13.8S92.6,54.7,91.4,50.3z"/>
	<polygon class="st2" points="58.3,72.6 73.1,64 58.3,55.4 "/>
</svg>
